# Blender 4.2.3 LTS
# www.blender.org
mtllib Arrow_cube_bottle_enlarge2.mtl
o Cap.001_Cube.004
v -0.039619 0.039825 -0.040174
v -0.039619 0.040174 0.039825
v 0.040381 0.039825 -0.040174
v 0.040381 0.040174 0.039825
v -0.039619 -0.040174 -0.039825
v -0.039619 -0.039825 0.040174
v 0.009454 0.011397 -0.030211
v 0.040381 -0.040174 -0.039825
v 0.009454 -0.009704 -0.030211
v 0.040381 -0.039825 0.040174
v 0.009454 -0.021996 -0.030211
v 0.035209 0.000846 -0.030211
v 0.009454 0.023689 -0.030211
v -0.032890 -0.009704 -0.030211
v -0.032890 0.011397 -0.030211
v 0.009454 0.023748 0.039897
v 0.009454 0.011456 0.039950
v 0.035209 0.000905 0.039996
v -0.032890 -0.009646 0.040042
v -0.032890 0.011456 0.039950
v 0.009454 -0.021938 0.040096
v 0.009454 -0.009646 0.040042
vn -0.0000 1.0000 -0.0044
vn 1.0000 -0.0000 -0.0000
vn -0.0000 -1.0000 0.0044
vn -1.0000 -0.0000 -0.0000
vn -0.0000 -0.0044 -1.0000
vn -0.0000 0.0044 1.0000
vn -0.0000 -0.0000 1.0000
vn -0.0000 -1.0000 0.0008
vn -0.0000 1.0000 -0.0008
vn -0.6635 0.7481 -0.0006
vn -0.6635 -0.7481 0.0006
vt 0.375000 0.000000
vt 0.625000 0.000000
vt 0.625000 0.250000
vt 0.375000 0.250000
vt 0.625000 0.500000
vt 0.375000 0.500000
vt 0.625000 0.750000
vt 0.375000 0.750000
vt 0.625000 1.000000
vt 0.375000 1.000000
vt 0.125000 0.500000
vt 0.125000 0.750000
vt 0.875000 0.750000
vt 0.719312 0.728973
vt 0.785254 0.728973
vt 0.719312 0.596647
vt 0.875000 0.500000
vt 0.785254 0.596647
vt 0.823667 0.596647
vt 0.752284 0.516162
vt 0.680898 0.596647
vt 0.478231 0.845692
vt 0.478231 0.933174
vt 0.520799 0.933174
vt 0.520799 0.845693
vt 0.545598 0.845692
vt 0.499515 0.792483
vt 0.453433 0.845693
vt 0.523580 0.044486
vt 0.395921 0.044486
vt 0.395921 0.250000
vt 0.523580 0.250000
vt 0.522872 0.500000
vt 0.395046 0.500000
vt 0.395046 0.705514
vt 0.522872 0.705514
vt 1.000000 0.796451
vt 1.000000 0.540967
vt 0.666667 0.539090
vt 0.666667 0.794924
vt 0.423020 0.797158
vt 0.423020 0.541842
vt 0.333333 0.542865
vt 0.333333 0.797974
vt 0.576980 0.540092
vt 0.576980 0.795743
vt 0.000000 0.540967
vt 0.000000 0.796451
vt 0.578708 0.584562
vt 0.579186 0.732987
vt 0.406047 0.732987
vt 0.405563 0.584757
s 0
usemtl Red
f 1/1/1 2/2/1 4/3/1 3/4/1
f 3/4/2 4/3/2 10/5/2 8/6/2
f 8/6/3 10/5/3 6/7/3 5/8/3
f 5/8/4 6/7/4 2/9/4 1/10/4
f 3/11/5 8/6/5 5/8/5 1/12/5
f 2/13/6 6/7/6 19/14/6 20/15/6
f 22/16/6 19/14/6 6/7/6 10/5/6 4/17/6 2/13/6 20/15/6 17/18/6 16/19/6 18/20/6 21/21/6
f 7/22/7 15/23/7 14/24/7 9/25/7 11/26/7 12/27/7 13/28/7
f 20/29/8 15/30/8 7/31/8 17/32/8
f 22/33/9 9/34/9 14/35/9 19/36/9
f 18/37/10 12/38/10 11/39/10 21/40/10
f 17/41/2 7/42/2 13/43/2 16/44/2
f 21/40/2 11/39/2 9/45/2 22/46/2
f 16/44/11 13/43/11 12/47/11 18/48/11
f 19/49/2 14/50/2 15/51/2 20/52/2
