# Blender 3.5.1
# www.blender.org
mtllib Arrow_cube_bottle.mtl
o Cap.001_Cube.004
v -0.039619 0.039825 -0.040174
v -0.039619 0.040174 0.039825
v 0.040381 0.039825 -0.040174
v 0.040381 0.040174 0.039825
v -0.039619 -0.040174 -0.039825
v -0.039619 -0.039825 0.040174
v 0.007147 0.012987 -0.030313
v 0.040381 -0.040174 -0.039825
v 0.007147 -0.011223 -0.030313
v 0.040381 -0.039825 0.040174
v 0.007147 -0.025327 -0.030313
v 0.036698 0.000882 -0.030313
v 0.007147 0.027091 -0.030313
v -0.032820 -0.011223 -0.030313
v -0.032820 0.012987 -0.030313
v 0.007147 0.027164 0.039882
v 0.036698 0.000956 0.039996
v 0.007147 0.013061 0.039943
v -0.032820 0.013061 0.039943
v -0.032820 -0.011150 0.040049
v 0.007147 -0.011150 0.040049
v 0.007147 -0.025254 0.040110
vn -0.0000 -0.0000 1.0000
vn -0.0000 -1.0000 0.0011
vn -0.0000 1.0000 -0.0010
vn -0.6635 0.7481 -0.0008
vn 1.0000 -0.0000 -0.0000
vn -0.6635 -0.7482 0.0008
vn -0.0000 1.0000 -0.0044
vn -0.0000 -1.0000 0.0044
vn -1.0000 -0.0000 -0.0000
vn -0.0000 -0.0044 -1.0000
vn -0.0000 0.0044 1.0000
vt 0.375000 0.000000
vt 0.375000 1.000000
vt 0.125000 0.750000
vt 0.625000 0.000000
vt 0.625000 1.000000
vt 0.875000 0.750000
vt 0.375000 0.250000
vt 0.125000 0.500000
vt 0.625000 0.250000
vt 0.875000 0.500000
vt 0.375000 0.750000
vt 0.625000 0.750000
vt 0.478231 0.845692
vt 0.395921 0.250000
vt 0.423020 0.541842
vt 0.375000 0.500000
vt 0.520799 0.845693
vt 0.395046 0.500000
vt 0.576980 0.540092
vt 0.625000 0.500000
vt 0.545598 0.845692
vt 0.666667 0.539090
vt 0.499515 0.792483
vt 1.000000 0.540967
vt 0.000000 0.540967
vt 0.453433 0.845693
vt 0.333333 0.542865
vt 0.520799 0.917658
vt 0.395046 0.669063
vt 0.595454 0.708871
vt 0.478231 0.917657
vt 0.395921 0.080937
vt 0.389022 0.708871
vt 0.333333 0.820732
vt 0.834344 0.603855
vt 1.000000 0.819300
vt 0.000000 0.819300
vt 0.752441 0.511509
vt 0.534984 0.250000
vt 0.423020 0.819966
vt 0.790269 0.603855
vt 0.534984 0.080937
vt 0.388393 0.581667
vt 0.790269 0.728754
vt 0.534318 0.669063
vt 0.594833 0.581475
vt 0.714609 0.728754
vt 0.534318 0.500000
vt 0.576980 0.818635
vt 0.714609 0.603855
vt 0.666667 0.817862
vt 0.670534 0.603855
s 0
usemtl Material.001
f 7/13/1 15/31/1 14/28/1 9/17/1 11/21/1 12/23/1 13/26/1
f 15/32/2 7/14/2 18/39/2 19/42/2
f 21/48/3 9/18/3 14/29/3 20/45/3
f 17/36/4 12/24/4 11/22/4 22/51/4
f 18/40/5 7/15/5 13/27/5 16/34/5
f 22/51/5 11/22/5 9/19/5 21/49/5
f 16/34/6 13/27/6 12/25/6 17/37/6
f 20/46/5 14/30/5 15/33/5 19/43/5
usemtl Material.002
f 1/1/7 2/4/7 4/9/7 3/7/7
f 3/7/5 4/9/5 10/20/5 8/16/5
f 8/16/8 10/20/8 6/12/8 5/11/8
f 5/11/9 6/12/9 2/5/9 1/2/9
f 3/8/10 8/16/10 5/11/10 1/3/10
f 2/6/11 6/12/11 20/47/11 19/44/11
f 20/47/11 6/12/11 10/20/11 4/10/11 2/6/11 19/44/11 18/41/11 16/35/11 17/38/11 22/52/11 21/50/11
