# Blender 4.3.0
# www.blender.org
mtllib Cross_cube_cap.mtl
o Cube
v 0.006272 -0.024229 -0.050056
v 0.024229 0.006272 -0.050056
v -0.006272 -0.024229 -0.050056
v 0.024229 -0.006272 -0.050056
v 0.024229 0.006272 0.050056
v 0.006272 -0.024229 0.050056
v -0.006272 -0.024229 0.050056
v 0.024229 -0.006272 0.050056
v 0.006272 0.024229 -0.050056
v -0.024229 0.006272 -0.050056
v -0.024229 -0.006272 -0.050056
v -0.006272 0.024229 -0.050056
v 0.006272 0.024229 0.050056
v -0.024229 0.006272 0.050056
v -0.024229 -0.006272 0.050056
v -0.006272 0.024229 0.050056
v 0.006272 0.006272 -0.050056
v -0.006272 0.006272 -0.050056
v -0.006272 0.006272 0.050056
v 0.006272 0.006272 0.050056
v -0.006272 -0.006272 -0.050056
v 0.006272 -0.006272 -0.050056
v -0.006272 -0.006272 0.050056
v 0.006272 -0.006272 0.050056
v 0.006272 0.001623 -0.050056
v 0.006272 -0.001623 0.050056
v -0.006272 -0.001623 -0.050056
v -0.006272 0.001623 0.050056
vn -0.0000 1.0000 -0.0000
vn -0.0000 -0.0000 1.0000
vn -1.0000 -0.0000 -0.0000
vn -0.0000 -1.0000 -0.0000
vn 1.0000 -0.0000 -0.0000
vn -0.0000 -0.0000 -1.0000
vt 0.875000 0.500000
vt 0.875000 0.750000
vt 0.782356 0.750000
vt 0.782356 0.500000
vt 0.717644 0.750000
vt 0.625000 0.750000
vt 0.625000 0.500000
vt 0.717644 0.500000
vt 0.532356 0.907356
vt 0.625000 0.907356
vt 0.625000 1.000000
vt 0.375000 1.000000
vt 0.375000 0.907356
vt 0.467644 0.842644
vt 0.375000 0.842644
vt 0.375000 0.750000
vt 0.625000 0.842644
vt 0.375000 0.000000
vt 0.625000 0.000000
vt 0.625000 0.250000
vt 0.375000 0.250000
vt 0.375000 0.500000
vt 0.282356 0.750000
vt 0.282356 0.500000
vt 0.217644 0.750000
vt 0.125000 0.750000
vt 0.125000 0.500000
vt 0.217644 0.500000
vt 0.375000 0.407356
vt 0.532356 0.407356
vt 0.625000 0.407356
vt 0.625000 0.342644
vt 0.467644 0.342644
vt 0.375000 0.342644
s 0
usemtl Material.003
f 10/1/1 14/2/1 19/3/1 18/4/1
f 20/5/1 5/6/1 2/7/1 17/8/1
f 15/18/3 14/19/3 10/20/3 11/21/3
f 4/22/4 8/16/4 24/23/4 22/24/4
f 23/25/4 15/26/4 11/27/4 21/28/4
f 4/22/5 2/7/5 5/6/5 8/16/5
f 17/7/5 9/7/5 13/6/5 20/6/5
f 24/6/5 6/6/5 1/7/5 22/7/5
f 16/18/1 13/18/1 9/21/1 12/21/1
f 3/27/3 7/26/3 23/26/3 21/27/3
f 19/26/3 16/26/3 12/27/3 18/27/3
f 3/22/4 1/22/4 6/16/4 7/16/4
usemtl Material.004
f 28/9/2 19/10/2 14/11/2 15/12/2 23/13/2
f 26/14/2 24/15/2 8/16/2 5/6/2 20/17/2
f 26/14/2 20/17/2 19/10/2 28/9/2
f 28/9/2 23/13/2 24/15/2 26/14/2
f 2/7/6 4/22/6 22/29/6 25/30/6 17/31/6
f 11/21/6 10/20/6 18/32/6 27/33/6 21/34/6
f 18/32/6 17/31/6 25/30/6 27/33/6
f 22/29/6 21/34/6 27/33/6 25/30/6
f 20/10/2 13/11/2 16/12/2 19/13/2
f 23/15/2 7/16/2 6/6/2 24/17/2
f 22/31/6 1/7/6 3/22/6 21/29/6
f 18/34/6 12/21/6 9/20/6 17/32/6
