# Blender 4.3.0
# www.blender.org
mtllib Star_cube_bottle2.mtl
o Cube
v 0.000000 -0.028679 0.019665
v 0.039522 -0.039522 0.039522
v 0.039522 0.039522 0.039522
v -0.008167 -0.011241 0.019665
v 0.039522 -0.039522 -0.039522
v -0.027275 -0.008862 0.019665
v -0.013215 0.004294 0.019665
v 0.039522 0.039522 -0.039522
v -0.039522 -0.039522 0.039522
v -0.016857 0.023201 0.019665
v 0.000000 0.013895 0.019665
v -0.039522 0.039522 0.039522
v 0.016857 0.023201 0.019665
v -0.039522 -0.039522 -0.039522
v 0.013215 0.004294 0.019665
v -0.039522 0.039522 -0.039522
v 0.027275 -0.008862 0.019665
v 0.008167 -0.011241 0.019665
v -0.008167 -0.011241 -0.030346
v 0.000000 -0.028679 -0.030346
v -0.027275 -0.008862 -0.030346
v -0.013215 0.004294 -0.030346
v -0.016857 0.023201 -0.030346
v 0.000000 0.013895 -0.030346
v 0.016857 0.023201 -0.030346
v 0.013215 0.004294 -0.030346
v 0.027275 -0.008862 -0.030346
v 0.008167 -0.011241 -0.030346
v 0.016857 0.023201 0.039522
v 0.000000 0.013895 0.039522
v -0.013215 0.004294 0.039522
v -0.027275 -0.008862 0.039522
v -0.016857 0.023201 0.039522
v 0.027275 -0.008862 0.039522
v -0.008167 -0.011241 0.039522
v 0.000000 -0.028679 0.039522
v 0.008167 -0.011241 0.039522
v 0.013215 0.004294 0.039522
vn 1.0000 -0.0000 -0.0000
vn -0.0000 -0.0000 -1.0000
vn -1.0000 -0.0000 -0.0000
vn -0.0000 -0.0000 1.0000
vn -0.0000 -1.0000 -0.0000
vn -0.0000 1.0000 -0.0000
vn 0.6832 -0.7302 -0.0000
vn -0.9056 0.4241 -0.0000
vn -0.9819 0.1891 -0.0000
vn 0.9819 0.1891 -0.0000
vn 0.9056 0.4241 -0.0000
vn -0.6832 -0.7302 -0.0000
vn -0.4833 -0.8755 -0.0000
vn 0.1235 0.9923 -0.0000
vn -0.1235 0.9923 -0.0000
vn 0.4833 -0.8755 -0.0000
vt 0.375000 0.000000
vt 0.375000 0.250000
vt 0.625000 0.250000
vt 0.625000 0.000000
vt 0.375000 0.500000
vt 0.625000 0.500000
vt 0.375000 0.750000
vt 0.625000 0.750000
vt 0.573381 0.821684
vt 0.543948 0.875000
vt 0.573381 0.928316
vt 0.625000 1.000000
vt 0.513581 0.916797
vt 0.471971 0.961265
vt 0.464447 0.900829
vt 0.409295 0.875000
vt 0.464447 0.849171
vt 0.471971 0.788735
vt 0.513581 0.833203
vt 0.375000 1.000000
vt 0.125000 0.500000
vt 0.125000 0.750000
vt 0.875000 0.750000
vt 0.875000 0.500000
vt 0.000000 0.000000
s 1
usemtl Material.001
f 2/1/1 5/2/1 8/3/1 3/4/1
f 5/2/2 14/5/2 16/6/2 8/3/2
f 14/5/3 9/7/3 12/8/3 16/6/3
f 33/9/4 30/10/4 29/11/4 3/12/4 12/8/4
f 29/11/4 38/13/4 34/14/4 37/15/4 36/16/4 35/17/4 32/18/4 31/19/4 33/9/4 12/8/4 9/7/4 2/20/4 3/12/4
f 5/21/5 2/22/5 9/7/5 14/5/5
f 16/6/6 12/8/6 3/23/6 8/24/6
usemtl Material.003
f 6/25/7 21/25/7 22/25/7 7/25/7
f 31/25/7 32/25/7 6/25/7 7/25/7
f 36/25/8 37/25/8 18/25/8 1/25/8
f 38/25/9 29/25/9 13/25/9 15/25/9
f 33/25/10 31/25/10 7/25/10 10/25/10
f 35/25/11 36/25/11 1/25/11 4/25/11
f 34/25/12 38/25/12 15/25/12 17/25/12
f 30/25/13 33/25/13 10/25/13 11/25/13
f 32/25/14 35/25/14 4/25/14 6/25/14
f 37/25/15 34/25/15 17/25/15 18/25/15
f 29/25/16 30/25/16 11/25/16 13/25/16
f 19/25/4 20/25/4 28/25/4 27/25/4 26/25/4 25/25/4 24/25/4 23/25/4 22/25/4 21/25/4
f 18/25/8 28/25/8 20/25/8 1/25/8
f 13/25/9 25/25/9 26/25/9 15/25/9
f 7/25/10 22/25/10 23/25/10 10/25/10
f 1/25/11 20/25/11 19/25/11 4/25/11
f 15/25/12 26/25/12 27/25/12 17/25/12
f 10/25/13 23/25/13 24/25/13 11/25/13
f 4/25/14 19/25/14 21/25/14 6/25/14
f 17/25/15 27/25/15 28/25/15 18/25/15
f 11/25/16 24/25/16 25/25/16 13/25/16
